<svg width="680" height="436" viewBox="0 0 680 436" xmlns="http://www.w3.org/2000/svg" font-family="'PingFang TC','Heiti TC','Noto Sans TC','Microsoft JhengHei',sans-serif">
<title>UcMarket 技術與文件流程</title>
<defs>
<marker id="ar" markerWidth="8" markerHeight="8" refX="6" refY="3" orient="auto"><path d="M0,0 L6,3 L0,6 Z" fill="#e0ad4d"/></marker>
</defs>
<rect x="0" y="0" width="680" height="436" fill="#262626"/>
<text x="340" y="44" text-anchor="middle" font-size="27" font-weight="500" fill="#e8b93f">技術與文件流程</text>
<text x="340" y="74" text-anchor="middle" font-size="13" fill="#b7b7b7">使用者下單 → 一筆交易依序流經各層，最後觸發自動化通知</text>

<g>
<rect x="40" y="96" width="130" height="180" rx="6" fill="#303030" stroke="#c99a3c" stroke-width="1.4"/>
<rect x="40" y="96" width="130" height="30" rx="6" fill="#e0ad4d"/>
<rect x="40" y="116" width="130" height="10" fill="#e0ad4d"/>
<text x="105" y="117" text-anchor="middle" font-size="14" font-weight="500" fill="#262626">前端 Frontend</text>
<text x="54" y="148" font-size="13" fill="#e6e6e6">pages</text>
<text x="54" y="170" font-size="13" fill="#e6e6e6">components</text>
<text x="54" y="192" font-size="13" fill="#e6e6e6">api</text>
<text x="54" y="214" font-size="13" fill="#e6e6e6">store</text>
<text x="54" y="236" font-size="13" fill="#e6e6e6">router</text>
<text x="54" y="262" font-size="11" fill="#9a9a9a">React · Vite · fetch</text>
</g>

<g>
<rect x="196" y="96" width="130" height="180" rx="6" fill="#303030" stroke="#c99a3c" stroke-width="1.4"/>
<rect x="196" y="96" width="130" height="30" rx="6" fill="#e0ad4d"/>
<rect x="196" y="116" width="130" height="10" fill="#e0ad4d"/>
<text x="261" y="117" text-anchor="middle" font-size="14" font-weight="500" fill="#262626">後端 Backend</text>
<text x="210" y="148" font-size="13" fill="#e6e6e6">Controller</text>
<text x="210" y="170" font-size="13" fill="#e6e6e6">Service</text>
<text x="210" y="192" font-size="13" fill="#e6e6e6">Repository</text>
<text x="210" y="214" font-size="13" fill="#e6e6e6">Entity</text>
<text x="210" y="236" font-size="13" fill="#e6e6e6">DTO · Security</text>
<text x="210" y="262" font-size="11" fill="#9a9a9a">Spring Boot · Java 21</text>
</g>

<g>
<rect x="352" y="96" width="130" height="180" rx="6" fill="#303030" stroke="#c99a3c" stroke-width="1.4"/>
<rect x="352" y="96" width="130" height="30" rx="6" fill="#e0ad4d"/>
<rect x="352" y="116" width="130" height="10" fill="#e0ad4d"/>
<text x="417" y="117" text-anchor="middle" font-size="14" font-weight="500" fill="#262626">資料庫 Database</text>
<text x="366" y="148" font-size="13" fill="#e6e6e6">users · wallets</text>
<text x="366" y="170" font-size="13" fill="#e6e6e6">markets</text>
<text x="366" y="192" font-size="13" fill="#e6e6e6">trades</text>
<text x="366" y="214" font-size="13" fill="#e6e6e6">positions</text>
<text x="366" y="236" font-size="13" fill="#e6e6e6">price_history</text>
<text x="366" y="262" font-size="11" fill="#9a9a9a">PostgreSQL · JPA</text>
</g>

<g>
<rect x="508" y="96" width="132" height="180" rx="6" fill="#303030" stroke="#c99a3c" stroke-width="1.4"/>
<rect x="508" y="96" width="132" height="30" rx="6" fill="#e0ad4d"/>
<rect x="508" y="116" width="132" height="10" fill="#e0ad4d"/>
<text x="574" y="117" text-anchor="middle" font-size="14" font-weight="500" fill="#262626">自動化 Automation</text>
<text x="522" y="148" font-size="13" fill="#e6e6e6">交易成功通知</text>
<text x="522" y="170" font-size="13" fill="#e6e6e6">每日熱門報表</text>
<text x="522" y="192" font-size="13" fill="#e6e6e6">市場截止提醒</text>
<text x="522" y="214" font-size="13" fill="#e6e6e6">管理員異常通知</text>
<text x="522" y="262" font-size="11" fill="#9a9a9a">n8n Webhook</text>
</g>

<line x1="174" y1="186" x2="192" y2="186" stroke="#e0ad4d" stroke-width="2" marker-end="url(#ar)"/>
<line x1="330" y1="186" x2="348" y2="186" stroke="#e0ad4d" stroke-width="2" marker-end="url(#ar)"/>
<line x1="486" y1="186" x2="504" y2="186" stroke="#e0ad4d" stroke-width="2" marker-end="url(#ar)"/>

<rect x="40" y="290" width="600" height="62" rx="6" fill="#2f2b22" stroke="#c99a3c" stroke-width="1.4"/>
<text x="54" y="312" font-size="13" font-weight="500" fill="#e8b93f">部署基座　Deployment on GCP　·　Docker Compose</text>
<text x="54" y="338" font-size="12" fill="#dcdcdc">Compute Engine  ·  Cloud SQL  ·  Caddy HTTPS  ·  Artifact Registry  ·  Secret Manager</text>

<rect x="40" y="364" width="600" height="52" rx="6" fill="#2b2b2b" stroke="#7a6329" stroke-width="1.2"/>
<text x="54" y="385" font-size="13" font-weight="500" fill="#e8b93f">工程化與文件　Dev / Portfolio</text>
<text x="54" y="406" font-size="12" fill="#cfcfcf">Git / GitHub　·　README　·　架構圖　·　API 文件</text>
</svg>
